<svg width="24" height="24" viewBox="0 0 24 24" fill="none" xmlns="http://www.w3.org/2000/svg">
<g clip-path="url(#clip0_62_8)">
<path d="M12.252 0.00401263C10.5856 -0.0401248 8.92888 0.269536 7.39122 0.912528C5.85355 1.55552 4.47 2.5172 3.332 3.73401C2.43405 4.63724 1.69981 5.68954 1.162 6.84401C0.372963 8.4516 -0.0245111 10.2228 0.00199953 12.013C0.00199953 13.433 0.172 14.513 0.602 15.783C0.842 16.542 1.372 17.682 1.772 18.312C2.73988 19.8464 4.03527 21.1477 5.56532 22.1226C7.09538 23.0975 8.82219 23.7219 10.622 23.951C11.062 24.001 13.162 24.021 13.382 23.971C13.582 23.931 13.602 24.071 13.122 22.271L12.762 20.901L11.752 20.841C9.87362 20.8291 8.05208 20.1962 6.572 19.041C6.07011 18.6981 5.63046 18.2719 5.272 17.781C5.272 17.731 5.612 17.501 6.012 17.281C6.94759 16.696 7.90852 16.1525 8.892 15.652C8.922 15.652 9.392 16.102 9.952 16.632L10.952 17.602L13.022 17.172L15.082 16.742L16.552 15.272C17.352 14.472 18.032 13.772 18.032 13.752C18.032 13.662 17.612 12.122 17.572 12.052C17.532 11.992 17.372 12.022 16.552 12.232C16.022 12.362 15.352 12.532 15.102 12.632L14.622 12.782L14.092 13.312L13.562 13.842L12.632 13.942L11.702 14.012L11.182 13.512C10.6612 13.0849 10.3188 12.4786 10.222 11.812L10.092 11.212L10.522 10.642C11.202 9.74201 11.202 9.74201 11.982 9.54201C12.382 9.44201 12.632 9.34201 12.812 9.21201C12.942 9.11301 13.462 8.63301 13.952 8.14301L14.852 7.24301L14.152 6.54301L13.452 5.84301L11.502 6.38301C10.432 6.68301 9.542 6.91301 9.532 6.91301C9.502 6.91301 7.302 9.39301 6.902 9.88301L6.612 10.233L6.892 11.263C7.052 11.823 7.192 12.423 7.202 12.603L7.232 12.903L6.892 13.133C6.522 13.363 4.672 14.433 4.052 14.763C3.692 14.963 3.682 14.963 3.612 14.863C3.532 14.763 3.382 14.263 3.292 13.833C3.112 12.973 3.122 11.083 3.312 10.103C3.71395 8.25474 4.69825 6.58414 6.12025 5.33675C7.54225 4.08935 9.32693 3.33095 11.212 3.17301C11.642 3.14301 11.982 3.09301 11.992 3.07301C12.052 2.90301 12.492 0.0740126 12.462 0.0340126C12.452 0.0140126 12.362 0.0140126 12.262 0.00401263H12.252ZM15.932 0.674013C15.732 0.674013 15.632 0.774013 15.562 1.05401C15.502 1.28401 15.102 3.47401 15.102 3.57401C15.102 3.61401 15.202 3.68401 15.322 3.73401C16.45 4.18019 17.4695 4.8621 18.312 5.73401C19.3045 6.68874 20.0464 7.87334 20.472 9.18301C20.7972 10.0787 20.9334 11.0321 20.872 11.983C20.872 13.053 20.872 13.253 20.772 13.713C20.4752 15.0853 19.8737 16.3734 19.012 17.482C18.692 17.882 18.032 18.542 17.642 18.862C17.262 19.182 16.102 19.962 15.942 20.002C15.842 20.032 15.842 20.062 15.872 20.262C15.902 20.442 16.512 22.822 16.572 23.042L16.632 23.102C18.5529 22.2954 20.2321 21.0057 21.5061 19.3584C22.7801 17.7112 23.6055 15.7625 23.902 13.702C24.032 12.932 24.032 11.122 23.902 10.302C23.6488 8.53547 23.0027 6.84803 22.0111 5.36363C21.0195 3.87923 19.7077 2.63558 18.172 1.72401C17.472 1.30401 16.122 0.664013 15.922 0.664013L15.932 0.674013Z" fill="white"/>
</g>
<defs>
<clipPath id="clip0_62_8">
<rect width="24" height="24" fill="white"/>
</clipPath>
</defs>
</svg>
